<?xml version="1.0" encoding="UTF-8"?>
<svg version="1.1" xmlns="http://www.w3.org/2000/svg" width="1024" height="1024">
<path d="M0 0 C0 0.33 0 0.66 0 1 C0.83845459 1.09498779 1.67690918 1.18997559 2.54077148 1.2878418 C20.88076019 3.39509587 38.98470036 5.86568863 57 10 C57.94037109 10.21350098 58.88074219 10.42700195 59.84960938 10.64697266 C111.32055163 22.57077744 162.39700341 47.77812094 202 83 C203.39563334 84.20856432 204.7914421 85.41692613 206.1875 86.625 C207.45984818 87.74828646 208.73061944 88.87336103 210 90 C210.76570312 90.67289062 211.53140625 91.34578125 212.3203125 92.0390625 C217.03715042 96.22359269 221.63467599 100.51199981 226.125 104.9375 C227.05570313 105.85402344 227.98640625 106.77054687 228.9453125 107.71484375 C231 110 231 110 231 112 C231.66 112 232.32 112 233 112 C234.7421875 113.87890625 234.7421875 113.87890625 236.875 116.5625 C237.68066406 117.573125 238.48632812 118.58375 239.31640625 119.625 C239.75098145 120.17414063 240.18555664 120.72328125 240.63330078 121.2890625 C242.01696879 123.02124281 243.42484297 124.73085051 244.83984375 126.4375 C252.59399579 135.85077563 259.45551259 145.71378839 266 156 C266.39783691 156.62310059 266.79567383 157.24620117 267.20556641 157.88818359 C283.37398193 183.43385962 295.70601143 211.27369904 305 240 C305.33523682 241.01489502 305.33523682 241.01489502 305.67724609 242.05029297 C312.24160896 262.10999505 316.17757603 283.13923829 318.70629883 304.0625 C318.95581877 305.98946731 318.95581877 305.98946731 319.50828552 307.76951599 C320.09613937 310.43610131 320.14235668 312.89369017 320.16113281 315.62524414 C320.17074036 316.75906021 320.1803479 317.89287628 320.19024658 319.06105042 C320.19449646 320.29000534 320.19874634 321.51896027 320.203125 322.78515625 C320.20882507 324.06942001 320.21452515 325.35368378 320.22039795 326.67686462 C320.23091311 329.41145214 320.2367468 332.14601036 320.24023438 334.88061523 C320.24455061 337.62750031 320.25816494 340.37405907 320.28125 343.12084961 C320.47539951 366.71692805 319.14566064 389.97835692 314.25 413.125 C313.99250977 414.36741455 313.73501953 415.6098291 313.46972656 416.88989258 C306.90089275 447.77642298 296.4253158 476.91535647 282 505 C281.53980469 505.89831543 281.07960938 506.79663086 280.60546875 507.72216797 C272.66014598 523.06614325 263.30429883 537.35324799 252.62280273 550.93212891 C250.99848792 553.00192678 249.40354287 555.09206877 247.8125 557.1875 C239.24368736 568.1662912 229.97012221 578.29034542 220 588 C217.55026029 590.43477946 215.11599474 592.88044228 212.7109375 595.359375 C207.66877186 600.51958465 202.46237486 605.23958438 196.8203125 609.734375 C194.95496457 611.23285394 193.11541178 612.7640791 191.3046875 614.328125 C183.03008917 621.47332133 174.14476702 627.51178934 165.07470703 633.59326172 C162.61552549 635.26068982 160.21297748 636.99939798 157.8125 638.75 C151.20109236 643.38024953 144.09279421 647.17109572 137 651 C136.12053711 651.47663086 135.24107422 651.95326172 134.33496094 652.44433594 C78.55447576 682.53363551 18.76926099 693.3166045 -44 695 C-44 694.34 -44 693.68 -44 693 C-44.86753906 693.04640625 -45.73507812 693.0928125 -46.62890625 693.140625 C-89.50398928 694.33278222 -135.22944981 681.74917336 -174.08740234 664.40063477 C-176.03497451 663.54529064 -178.01520759 662.76501635 -180 662 C-180.66 662.33 -181.32 662.66 -182 663 C-182.66 662.34 -183.32 661.68 -184 661 C-187.75158673 657.82628604 -192.08430323 655.83505724 -196.4375 653.625 C-218.102703 642.39126862 -238.39693829 628.79762195 -257 613 C-258.01449219 612.16984375 -259.02898437 611.3396875 -260.07421875 610.484375 C-267.57733918 604.28441062 -274.5525873 597.62860726 -281.4375 590.75 C-282.27788818 589.91041748 -283.11827637 589.07083496 -283.98413086 588.20581055 C-288.85429741 583.29195666 -293.49345984 578.24684681 -298 573 C-299.05651543 571.80805042 -300.11507778 570.61791172 -301.17578125 569.4296875 C-308.37049535 561.30917882 -314.90841602 552.97823008 -321 544 C-321.90371338 542.68201416 -321.90371338 542.68201416 -322.82568359 541.33740234 C-330.40798495 530.2612773 -337.83992407 519.21587262 -343.99414062 507.26855469 C-346.00546372 503.0702684 -346.00546372 503.0702684 -350 501 C-349.67 500.01 -349.34 499.02 -349 498 C-349.82276462 495.5419895 -349.82276462 495.5419895 -351.17578125 492.85546875 C-351.91658936 491.27161377 -351.91658936 491.27161377 -352.67236328 489.65576172 C-353.2136084 488.51123535 -353.75485352 487.36670898 -354.3125 486.1875 C-359.70995394 474.49541533 -364.0291404 462.67188885 -367.8762207 450.38745117 C-368.2599585 449.17420166 -368.64369629 447.96095215 -369.0390625 446.7109375 C-369.37115723 445.63118652 -369.70325195 444.55143555 -370.04541016 443.43896484 C-370.74539441 440.84817426 -370.74539441 440.84817426 -373 440 C-372.67 438.02 -372.34 436.04 -372 434 C-372.66 433.67 -373.32 433.34 -374 433 C-374.54272461 431.01025391 -374.54272461 431.01025391 -374.96484375 428.3515625 C-375.12968262 427.35415039 -375.29452148 426.35673828 -375.46435547 425.32910156 C-375.64111816 424.23049805 -375.81788086 423.13189453 -376 422 C-376.41522334 419.63232939 -376.83330464 417.26515861 -377.25390625 414.8984375 C-377.69065806 412.3907214 -378.12684804 409.8829074 -378.5625 407.375 C-378.89411133 405.4878125 -378.89411133 405.4878125 -379.23242188 403.5625 C-380.74614655 394.83686046 -382.16451536 386.31283675 -382.0625 377.4375 C-382.05347656 376.40496094 -382.04445313 375.37242187 -382.03515625 374.30859375 C-382.02355469 373.54675781 -382.01195312 372.78492188 -382 372 C-382.66 371.67 -383.32 371.34 -384 371 C-384.02531484 363.64934015 -384.04285202 356.2986915 -384.05493164 348.94799805 C-384.05996641 346.44636617 -384.06679461 343.94473724 -384.07543945 341.44311523 C-384.08754238 337.85139234 -384.09323682 334.25970828 -384.09765625 330.66796875 C-384.10281754 329.54601608 -384.10797882 328.42406342 -384.11329651 327.26811218 C-384.11337204 326.22725967 -384.11344757 325.18640717 -384.11352539 324.11401367 C-384.115746 323.19690109 -384.11796661 322.27978851 -384.12025452 321.33488464 C-384 319 -384 319 -383 316 C-382.77553669 314.38821887 -382.58751287 312.77122802 -382.421875 311.15234375 C-379.22127283 281.44219471 -373.16550309 252.77582638 -362.48901367 224.81347656 C-362.16392822 223.95979492 -361.83884277 223.10611328 -361.50390625 222.2265625 C-361.06800171 221.10628662 -361.06800171 221.10628662 -360.62329102 219.96337891 C-359.84871129 217.86676075 -359.84871129 217.86676075 -360 215 C-359.34 215 -358.68 215 -358 215 C-357.82331787 214.44530029 -357.64663574 213.89060059 -357.46459961 213.3190918 C-345.9603937 177.91490746 -323.52059274 142.94405209 -298 116 C-296.72180956 114.5690378 -295.45059783 113.13180173 -294.1875 111.6875 C-293.630625 111.05199219 -293.07375 110.41648437 -292.5 109.76171875 C-291.18183552 108.21356202 -289.92885133 106.61040173 -288.6875 105 C-288.130625 104.34 -287.57375 103.68 -287 103 C-286.34 103 -285.68 103 -285 103 C-284.505 101.515 -284.505 101.515 -284 100 C-282.46875 98.4921875 -282.46875 98.4921875 -280.5 96.875 C-277.44953463 94.29881193 -274.63513466 91.63418565 -271.875 88.75 C-266.57609111 83.38724883 -260.70811812 78.86233637 -254.71826172 74.30810547 C-253.16054496 73.12222221 -251.61287183 71.92317481 -250.06640625 70.72265625 C-211.77782573 41.35568672 -168.26789304 22.47721127 -122.03027344 9.58496094 C-120.34097116 9.09824037 -118.66780551 8.55593517 -117 8 C-114.9388023 7.77525882 -112.87736664 7.55253785 -110.81494141 7.33935547 C-107.55925166 6.94686555 -104.33962407 6.42106304 -101.10546875 5.87890625 C-67.32998818 0.22464379 -34.18828584 -0.27387707 0 0 Z " fill="#EBDBB4" transform="translate(544,160)"/>
<path d="M0 0 C1.6468926 -0.00461651 3.29378106 -0.01097443 4.94066101 -0.01890898 C9.43779244 -0.03552272 13.93458194 -0.02739235 18.43171418 -0.0149641 C23.29276095 -0.00588312 28.1537505 -0.01989847 33.01478577 -0.03088379 C42.5266243 -0.04864152 52.03833635 -0.04484115 61.55017977 -0.03323323 C69.28339314 -0.02418784 77.01657114 -0.02297969 84.74978828 -0.02732849 C86.40277307 -0.02824789 86.40277307 -0.02824789 88.08915149 -0.02918586 C90.32806159 -0.03046481 92.56697167 -0.03176166 94.80588175 -0.03307623 C115.78535597 -0.04447412 136.7647602 -0.03138099 157.74422295 -0.00987476 C175.73088929 0.007993 193.71745235 0.00489321 211.70411682 -0.0135498 C232.6086238 -0.03497476 253.51306948 -0.04337294 274.41758591 -0.03110075 C276.64841687 -0.0298266 278.87924783 -0.02856912 281.11007881 -0.02732849 C282.75634514 -0.02640284 282.75634514 -0.02640284 284.43586938 -0.02545848 C292.15591481 -0.02201028 299.87592123 -0.02782256 307.59596062 -0.0372467 C317.00976612 -0.04848623 326.42343828 -0.04538568 335.83722859 -0.02412373 C340.63685364 -0.01363924 345.43625668 -0.00944696 350.2358799 -0.02272034 C354.63592509 -0.03470427 359.03554401 -0.02798353 363.43555094 -0.00681013 C365.02087314 -0.00236933 366.6062319 -0.00455308 368.19153028 -0.01431328 C382.88277952 -0.09777172 395.43293719 2.26290482 406.49684143 12.50793457 C412.88538148 19.89468401 417.60856881 30.17643228 417.63106251 40.03994656 C417.63552035 40.94905991 417.6399782 41.85817326 417.64457113 42.79483551 C417.64429458 44.28736338 417.64429458 44.28736338 417.64401245 45.81004333 C417.64768914 46.87009584 417.65136583 47.93014835 417.65515393 49.02232367 C417.66619666 52.5864612 417.67003566 56.15056959 417.67384338 59.71472168 C417.6801077 62.26561577 417.68675447 64.81650895 417.6937561 67.36740112 C417.71298858 75.03215841 417.72358633 82.69691058 417.73248389 90.36168584 C417.73687018 93.97470694 417.74223621 97.58772659 417.74747276 101.20074654 C417.7644859 113.21830281 417.77897784 125.23585818 417.7862215 137.25342464 C417.78813129 140.37122028 417.79005163 143.48901591 417.79200745 146.60681152 C417.79249119 147.38168994 417.79297493 148.15656835 417.79347333 148.95492793 C417.80176524 161.49423166 417.82708755 174.03343974 417.85958812 186.57270174 C417.89271314 199.45842446 417.91067529 212.34409868 417.91386575 225.22986418 C417.91602613 232.45982612 417.92470503 239.68964869 417.95032692 246.91956902 C417.97439422 253.72642987 417.97782551 260.53303681 417.96756554 267.33993149 C417.96707095 269.83233409 417.97336847 272.32474917 417.98712158 274.81711388 C418.0752574 291.74243318 418.12793152 307.09322604 405.90699768 320.21496582 C395.43437954 329.94834033 383.57172629 331.81182908 369.8506012 331.73498535 C368.47027596 331.73442056 367.08995013 331.73473913 365.70962524 331.73587036 C361.97870059 331.73644221 358.24790556 331.72471515 354.51701093 331.71072245 C350.61193331 331.69818707 346.70685245 331.69704238 342.80175781 331.69467163 C335.41419162 331.68846509 328.02668489 331.6720655 320.63914484 331.65197265 C312.22560803 331.62958789 303.81206833 331.61861375 295.39850914 331.60858178 C278.09791889 331.58769851 260.79738646 331.55253866 243.49684143 331.50793457 C243.83006409 332.76452881 244.16328674 334.02112305 244.50660706 335.3157959 C245.74030732 339.97204406 246.96916302 344.62955923 248.19654846 349.28747559 C248.72875223 351.3044272 249.26227449 353.32103139 249.7971344 355.33728027 C250.56508077 358.23310771 251.32829849 361.13014579 252.09059143 364.02746582 C252.331203 364.93068069 252.57181458 365.83389557 252.81971741 366.76448059 C253.03994568 367.60512558 253.26017395 368.44577057 253.48707581 369.31188965 C253.68248962 370.0513533 253.87790344 370.79081696 254.07923889 371.5526886 C254.49684143 373.50793457 254.49684143 373.50793457 254.49684143 376.50793457 C255.67713928 376.49222412 256.85743713 376.47651367 258.07350159 376.46032715 C262.46796295 376.40587563 266.86239469 376.37152919 271.25709534 376.34313965 C273.15623496 376.32808766 275.05534002 376.30764141 276.95436096 376.28161621 C279.68996224 376.24507465 282.42510243 376.22817219 285.16090393 376.21496582 C286.00488739 376.19948196 286.84887085 376.18399811 287.71842957 376.16804504 C293.40617979 376.1664348 297.73135242 376.99080258 302.10621643 380.97277832 C306.36193513 386.46731924 308.08791061 389.41510444 307.49684143 396.50793457 C305.86166699 403.22747952 302.85969644 407.42538736 296.89302731 411.12042332 C292.59358575 412.87695955 289.06561555 412.92873897 284.47036743 412.89561462 C283.57179832 412.90100016 282.67322922 412.9063857 281.74743074 412.91193444 C278.7419673 412.92622107 275.73694386 412.91910848 272.73146057 412.9119873 C270.57446946 412.91769048 268.41748137 412.92465454 266.26049805 412.93278503 C260.4051547 412.95073701 254.54996105 412.94954421 248.69459844 412.94384265 C243.80630552 412.94075383 238.91804148 412.94683983 234.02975267 412.9528814 C222.4980059 412.96693165 210.96633321 412.96536107 199.43458557 412.95397949 C187.53754285 412.94249686 175.64072551 412.95657539 163.74371248 412.98337597 C153.52868851 413.005526 143.31373531 413.01217193 133.09868902 413.00629956 C126.99795888 413.00292724 120.89737324 413.00536346 114.79666328 413.02255058 C109.06004387 413.03800645 103.32375863 413.03407896 97.58715248 413.01524544 C95.48247594 413.01155587 93.3777747 413.01467869 91.27312088 413.02513123 C88.398461 413.03831732 85.52491125 413.02681442 82.65029907 413.00914001 C81.81877306 413.01874502 80.98724704 413.02835003 80.13052326 413.0382461 C73.78173003 412.95801152 69.48686871 411.31024714 64.75465393 406.87512207 C59.87701819 400.45009844 59.79464363 395.51494004 60.49684143 387.50793457 C62.63157401 383.00127689 65.41506272 380.33378137 69.49684143 377.50793457 C73.44448413 376.19205367 77.20773499 376.38493184 81.32106018 376.41027832 C82.61316154 376.41240074 82.61316154 376.41240074 83.93136597 376.41456604 C86.68239312 376.42016317 89.43333887 376.43271511 92.18434143 376.44543457 C94.04957463 376.45044994 95.91480911 376.45501278 97.78004456 376.45910645 C102.35234154 376.47013165 106.92457768 376.4873943 111.49684143 376.50793457 C111.5875592 375.91907471 111.67827698 375.33021484 111.77174377 374.72351074 C113.29635635 365.59717644 115.71471165 356.74344787 118.12184143 347.82043457 C118.54672071 346.23265096 118.97120284 344.64476102 119.39527893 343.0567627 C120.42456325 339.20591342 121.45919478 335.35653856 122.49684143 331.50793457 C121.79760968 331.51162174 121.09837793 331.51530891 120.37795734 331.51910782 C103.31584601 331.60768154 86.25379354 331.67375203 69.19150257 331.71518326 C60.94008915 331.7357548 52.68882977 331.7637711 44.43751526 331.80969238 C37.24052227 331.84972672 30.04364093 331.87540663 22.84653968 331.88428855 C19.04034224 331.88947542 15.23446402 331.90155149 11.42836952 331.9308548 C7.83567596 331.95828736 4.24342884 331.9663244 0.65064049 331.9603653 C-1.27564356 331.96196654 -3.20188056 331.98334213 -5.1280365 332.00561523 C-18.45909864 331.94344267 -29.06499705 328.76801856 -38.62425232 319.43762207 C-45.25151771 312.4577132 -49.6119064 304.6403289 -49.64017296 294.86380768 C-49.6452475 293.92969386 -49.65032204 292.99558003 -49.65555036 292.03315973 C-49.65604812 291.01022239 -49.65654588 289.98728505 -49.65705872 288.93334961 C-49.66144097 287.84400667 -49.66582322 286.75466372 -49.67033827 285.63231039 C-49.68373061 281.96910526 -49.68990617 278.30592419 -49.69602966 274.6427002 C-49.70393036 272.02121878 -49.71219929 269.39973846 -49.72080994 266.77825928 C-49.74531668 258.90142456 -49.75995956 251.02458358 -49.77287 243.14772248 C-49.77658352 240.92170754 -49.78055663 238.69569321 -49.78462267 236.46967888 C-49.80986331 222.63731635 -49.83190976 208.8049528 -49.84435081 194.97257233 C-49.84728037 191.76951595 -49.85024205 188.56645961 -49.85325623 185.36340332 C-49.85400228 184.56732829 -49.85474833 183.77125327 -49.85551699 182.95105475 C-49.86816123 170.06509446 -49.90137258 157.17927245 -49.94305806 144.29337674 C-49.98553482 131.05396597 -50.00905255 117.81462587 -50.01427138 104.57514715 C-50.01767924 97.14565087 -50.02936018 89.71637058 -50.06237411 82.28694153 C-50.09045503 75.95735816 -50.10133899 69.62803507 -50.09017865 63.29839426 C-50.08501208 60.07241822 -50.09050612 56.84709747 -50.1126442 53.62117767 C-50.27408589 28.73485859 -50.27408589 28.73485859 -44.50315857 19.50793457 C-44.03710897 18.73920265 -43.57105938 17.97047073 -43.09088707 17.17844391 C-33.43930073 2.17000751 -16.35233715 -0.10052167 0 0 Z " fill="#326F94" transform="translate(328.50315856933594,304.4920654296875)"/>
<path d="M0 0 C0.97499917 -0.00307895 0.97499917 -0.00307895 1.9696953 -0.0062201 C4.16283562 -0.01190567 6.35591345 -0.01043094 8.54905987 -0.00901413 C10.13129696 -0.01159687 11.71353339 -0.01460978 13.29576892 -0.01801753 C17.6556148 -0.02610142 22.01544423 -0.02787787 26.37529671 -0.028615 C31.07274864 -0.03046313 35.77019199 -0.03800922 40.46763897 -0.04475021 C50.74439477 -0.05834368 61.02114668 -0.06435976 71.29790998 -0.06876087 C77.71175326 -0.07152145 84.12559503 -0.07575845 90.53943729 -0.08026505 C108.28902911 -0.09245878 126.03861972 -0.10275805 143.78821564 -0.10614014 C144.92466362 -0.1063597 146.06111161 -0.10657927 147.23199741 -0.10680549 C148.37120038 -0.10702377 149.51040335 -0.10724204 150.68412763 -0.10746694 C152.99267662 -0.10791041 155.3012256 -0.10835697 157.60977459 -0.10880661 C159.32746315 -0.10913875 159.32746315 -0.10913875 161.07985248 -0.10947761 C179.64102395 -0.11342684 198.20215619 -0.13088423 216.7633125 -0.15416613 C235.80866701 -0.17786305 254.85400183 -0.19034122 273.89937133 -0.19150805 C284.59714499 -0.19242572 295.29486754 -0.19820113 305.99262714 -0.21632767 C315.10086264 -0.23170624 324.20903122 -0.23686239 333.31727723 -0.22858956 C337.96607852 -0.22467516 342.61474497 -0.2256511 347.26352978 -0.23964691 C351.51792542 -0.25233847 355.77208424 -0.25123029 360.02647933 -0.2390562 C361.56686531 -0.23709095 363.1072678 -0.24021568 364.64763055 -0.24890056 C366.73989845 -0.25995181 368.83132446 -0.25253484 370.92356873 -0.24050903 C372.08616504 -0.24110612 373.24876135 -0.24170321 374.44658786 -0.24231839 C379.37025657 0.33203437 382.61139245 2.00801844 385.96304607 5.63142776 C388.9689749 10.08465566 388.79892209 14.12992214 388.79771709 19.31033707 C388.80139378 20.15396228 388.80507047 20.9975875 388.80885857 21.86677712 C388.81990428 24.70410493 388.82374074 27.54139612 388.82754803 30.37874222 C388.83381193 32.40883374 388.84045866 34.43892411 388.84746075 36.46901321 C388.86487538 41.99178558 388.87542345 47.51454929 388.88366628 53.03734231 C388.88881472 56.48626433 388.89489047 59.93518366 388.90117741 63.38410378 C388.9202295 74.17067822 388.93446144 84.9572458 388.94278938 95.74383384 C388.95256738 108.2034456 388.97890163 120.66287996 389.01929027 133.12242919 C389.04942394 142.74798305 389.06425558 152.37348596 389.06757039 161.99908608 C389.0699237 167.75053312 389.07892105 173.50179065 389.10403156 179.25318718 C389.12726958 184.66307177 389.13156265 190.0726415 389.12127018 195.48256302 C389.1207737 197.46833911 389.12712717 199.45413049 389.14082623 201.43985939 C389.15848237 204.15080794 389.15147008 206.86061875 389.13829327 209.57156754 C389.14926251 210.35747042 389.16023176 211.14337331 389.17153341 211.95309144 C389.09933413 218.10503357 386.99947962 221.40666486 383.08804607 225.94392776 C379.97917678 228.51212414 376.69627212 228.25504365 372.86094952 228.25168228 C371.65360149 228.25305695 370.44625347 228.25443161 369.20231915 228.25584793 C367.86255144 228.25230881 366.52278399 228.24867401 365.18301678 228.24495316 C363.77372521 228.24467112 362.3644335 228.24482935 360.95514202 228.24539566 C357.12691653 228.24568298 353.29872227 228.23979681 349.47050405 228.2328217 C345.47063908 228.22657728 341.47077343 228.2259835 337.47090435 228.2247963 C329.89552194 228.2216862 322.32015393 228.21347713 314.74477786 228.20344681 C306.12093239 228.19227571 297.49708624 228.1867727 288.87323534 228.18175137 C271.13233075 228.17129426 253.39143957 228.15370102 235.65054607 228.13142776 C235.29380288 221.26631496 235.05176943 214.40362604 234.88493633 207.53129959 C234.8153283 205.2001101 234.72056974 202.8695184 234.5991087 200.54045486 C233.56564546 180.19668608 233.56564546 180.19668608 238.54136944 173.63695145 C241.86240699 170.02197068 245.59744467 167.09185827 249.58804607 164.25642776 C251.04873596 163.10159566 252.50676399 161.94336709 253.95938396 160.77840042 C254.54046413 160.32846725 255.1215443 159.87853409 255.72023296 159.41496658 C262.25643609 153.99975708 264.47244126 148.99782502 265.32274151 140.57133865 C265.79269978 132.20352153 265.62049995 123.91156633 265.18936443 115.54597855 C265.10580448 113.87059509 265.10580448 113.87059509 265.02055645 112.16136551 C264.89614121 110.03767827 264.73512659 107.91573698 264.53309917 105.79802322 C264.33733238 103.1249061 264.19606376 100.77334257 264.65054607 98.13142776 C267.49869061 95.60603714 267.49869061 95.60603714 270.65054607 94.13142776 C274.96232481 89.58010576 276.68381276 85.08695535 277.08804607 78.88142776 C276.88873038 72.3150831 274.27531644 66.92858771 269.80679607 62.16658401 C264.27508029 57.78042878 258.88766132 57.29103611 251.96304607 57.61189651 C245.73008138 58.58947234 241.91038727 61.53186378 237.77554607 66.13142776 C233.82786431 71.70462554 232.77343082 76.37764028 233.65054607 83.13142776 C235.47662455 89.52270243 238.22881197 93.35978665 243.65054607 97.13142776 C244.31054607 97.46142776 244.97054607 97.79142776 245.65054607 98.13142776 C245.84892472 104.26933946 245.99376279 110.40537012 246.0899992 116.54573441 C246.13012911 118.63232821 246.1846488 120.71869846 246.2540617 122.80452347 C246.3515829 125.81118817 246.3965751 128.81487163 246.43179607 131.82283401 C246.47308636 132.74915131 246.51437664 133.6754686 246.55691814 134.62985611 C246.55963821 138.59297066 246.49161252 141.11367547 243.90860271 144.2393074 C241.89443397 146.00658156 239.82971083 147.57544082 237.65054607 149.13142776 C234.23169715 152.38747436 231.17176139 155.83787211 228.12320232 159.43220901 C225.34501281 162.6378123 222.54674121 165.51933177 219.03941631 167.914814 C216.43947391 169.91573704 216.43947391 169.91573704 216.01130962 172.81435013 C216.00464779 173.83583145 215.99798595 174.85731277 215.99112225 175.90974808 C215.9616576 177.65110031 215.9616576 177.65110031 215.93159771 179.42763138 C215.93553036 180.67566544 215.93946301 181.92369949 215.94351482 183.20955276 C215.92839352 184.49126358 215.91327221 185.7729744 215.89769268 187.09352493 C215.85786033 190.4933541 215.8476536 193.89264767 215.84366131 197.29268265 C215.83432621 200.76513779 215.79691056 204.23727866 215.7618742 207.70955276 C215.69731693 214.51684318 215.66665831 221.32385204 215.65054607 228.13142776 C209.38054607 228.13142776 203.11054607 228.13142776 196.65054607 228.13142776 C196.46530396 206.99991287 196.32256441 185.86859373 196.2360487 164.73643017 C196.19480888 154.92421124 196.13859169 145.11250625 196.04703045 135.30061722 C195.96725728 126.74788095 195.91567206 118.19551689 195.89783812 109.64241892 C195.88741398 105.11396839 195.86294306 100.5865826 195.80470562 96.05847359 C195.75030607 91.79412579 195.73367219 87.53127865 195.74568462 83.26661682 C195.74348796 81.70368091 195.72762885 80.14069363 195.69690228 78.57805824 C195.47553802 66.73714546 195.47553802 66.73714546 198.43313885 62.69540977 C200.42313071 60.95971032 202.44155872 59.5663431 204.65054607 58.13142776 C208.33500174 52.64303537 209.28118023 46.92753757 208.25601482 40.45174026 C206.57578923 34.01268218 203.02158644 29.89115602 197.65054607 26.13142776 C192.01561069 23.44202679 185.43803448 23.01391793 179.43960857 24.78377151 C173.41061656 27.47487331 169.60436229 31.84546412 166.27554607 37.44392776 C164.61881732 44.56786139 165.14050081 50.73813104 168.65054607 57.13142776 C170.52223383 59.78801684 171.94079937 61.71504324 174.74938869 63.36274815 C176.65054607 65.13142776 176.65054607 65.13142776 177.14273739 68.04620266 C177.13720663 69.84508167 177.13720663 69.84508167 177.13156414 71.68030167 C177.13498184 72.34848398 177.13839954 73.01666628 177.1419208 73.70509654 C177.14852064 75.94879611 177.12649107 78.19130485 177.10464764 80.43489456 C177.1035196 82.04122769 177.10415216 83.64756288 177.10641766 85.25389481 C177.10756746 89.6194603 177.08401526 93.98458807 177.05612183 98.35005164 C177.03115245 102.91044009 177.02876971 107.47083807 177.0240202 112.03128433 C177.01157726 120.66923586 176.97873788 129.30698539 176.93862224 137.94484788 C176.89394547 147.77783365 176.8719278 157.61082896 176.8518405 167.44389093 C176.81000635 187.67318575 176.73882502 207.90228694 176.65054607 228.13142776 C170.05054607 228.13142776 163.45054607 228.13142776 156.65054607 228.13142776 C156.77212078 226.40513138 156.89369549 224.67883499 157.01895428 222.90022659 C157.52218027 214.91789089 157.81999039 206.93977635 157.96304607 198.94392776 C157.97599335 198.22661861 157.98894062 197.50930946 158.00228024 196.77026367 C158.78754343 176.62265135 158.78754343 176.62265135 151.00671673 158.85266495 C147.29145037 155.04893699 143.26303737 151.8376936 139.02878094 148.63762283 C126.2384501 138.89130084 126.2384501 138.89130084 124.72035503 129.69873428 C124.26352459 125.19895314 124.20238781 120.77452549 124.33804607 116.25642776 C124.36377193 114.97072388 124.36377193 114.97072388 124.39001751 113.65904617 C124.82485305 100.65371047 124.82485305 100.65371047 128.52408123 95.54304886 C130.48646533 93.82356281 132.43730278 92.49734818 134.65054607 91.13142776 C138.87668397 85.58462178 138.34409862 78.79769166 137.65054607 72.13142776 C136.41707156 66.73388328 133.69864036 63.77499059 129.21304607 60.63142776 C122.52214611 57.01419086 115.55144089 56.83624839 108.25601482 58.76424026 C102.85694049 61.05600796 99.59725194 65.16587151 96.65054607 70.13142776 C94.57271665 76.36491603 94.96508496 83.25824676 97.52945232 89.30720901 C100.15483242 93.57916896 103.93333016 96.55902246 108.65054607 98.13142776 C108.48389446 100.054991 108.48389446 100.054991 108.31387615 102.01741409 C105.28438618 126.66425798 105.28438618 126.66425798 112.3478117 149.10506058 C114.53190007 151.25481133 116.79604697 153.18104347 119.23628521 155.03241348 C119.88970331 155.53575274 120.54312141 156.03909199 121.21634007 156.55768394 C122.48548454 157.51825938 123.76685853 158.46304264 125.0636797 159.38591194 C130.76976283 163.55418112 135.71523135 168.06937091 137.35005856 175.16939926 C138.32649918 183.77481204 137.87593603 192.37968178 137.49038982 201.01033401 C137.42288511 203.64401062 137.36159115 206.27785413 137.306674 208.91182327 C137.15961441 215.32203967 136.93567719 221.72594512 136.65054607 228.13142776 C118.01358461 228.29509404 99.37676937 228.41845935 80.73923779 228.49411297 C72.08508025 228.5301772 63.43136976 228.57932779 54.7774992 228.65950394 C47.23299623 228.72936861 39.68881706 228.7744575 32.14399958 228.79004723 C28.15045831 228.79915765 24.15784322 228.82050153 20.16459942 228.87153816 C16.40179499 228.91923761 12.64029345 228.93367234 8.87721539 228.92318153 C6.84608575 228.92600999 4.81509641 228.96358444 2.78433514 229.00236893 C-4.52456445 228.94484485 -8.75899317 228.20439012 -13.99844837 222.92770863 C-16.97862272 218.96530438 -16.49502627 214.62786608 -16.48989582 209.90782547 C-16.49286694 209.05941113 -16.49583807 208.2109968 -16.49889922 207.33687294 C-16.50759666 204.48338783 -16.50909535 201.62994462 -16.51058674 198.7764473 C-16.51521413 196.73488144 -16.52023868 194.69331645 -16.5256319 192.65175247 C-16.53876444 187.09805284 -16.54520238 181.5443653 -16.54964256 175.99065256 C-16.55257155 172.52297712 -16.55667599 169.055305 -16.56114674 165.58763123 C-16.57482311 154.7439256 -16.58448942 143.90022755 -16.58834863 133.05651391 C-16.59283169 120.52787411 -16.61039057 107.99934328 -16.63934922 95.47073662 C-16.66094319 85.79339343 -16.67105166 76.11608095 -16.67238975 66.43871391 C-16.67343929 60.6554781 -16.67937905 54.87234472 -16.69720936 49.08913422 C-16.71365082 43.6505636 -16.71586464 38.21217283 -16.70707035 32.77358627 C-16.7062979 30.77610799 -16.71066991 28.77862018 -16.7205286 26.78116608 C-16.73318744 24.05689391 -16.72740442 21.33326457 -16.7169466 18.60899734 C-16.72500301 17.81629067 -16.73305941 17.02358399 -16.74135995 16.20685589 C-16.688075 10.28269537 -15.20666389 7.22078897 -11.34945393 2.88142776 C-7.79677985 -0.22716206 -4.5336039 0.00486282 0 0 Z " fill="#ECDBB5" transform="translate(325.3494539260864,337.8685722351074)"/>
<path d="M0 0 C47.52 0 95.04 0 144 0 C142 2 142 2 139.56747246 2.24609566 C138.5369079 2.24425207 137.50634335 2.24240849 136.44454956 2.24050903 C135.26381866 2.24325836 134.08308777 2.24600769 132.86657715 2.24884033 C131.56466431 2.24164978 130.26275146 2.23445923 128.92138672 2.22705078 C127.54179899 2.22648687 126.16221067 2.22680284 124.78262329 2.22793579 C121.030743 2.22851108 117.27898985 2.21672847 113.52713919 2.20278788 C109.60868564 2.1903097 105.69022938 2.18911232 101.77175903 2.18673706 C94.34861069 2.1805137 86.92552106 2.16409135 79.50239861 2.14403808 C71.05270263 2.12170566 62.60300388 2.11069235 54.15328574 2.10064721 C36.76882317 2.07972584 19.38441779 2.04453329 2 2 C2.33 4.64 2.66 7.28 3 10 C1 7 1 7 0 0 Z " fill="#124C81" transform="translate(570,634)"/>
<path d="M0 0 C0.99 0.33 1.98 0.66 3 1 C1.89205078 2.16402344 1.89205078 2.16402344 0.76171875 3.3515625 C-5.30279363 9.78856319 -11.03247141 16.34024328 -16.3449707 23.41650391 C-18.64339157 26.44219546 -20.80583907 28.91492273 -24 31 C-22.54159349 26.49144044 -20.01394726 23.32079377 -16.9375 19.8125 C-16.451604 19.24805176 -15.96570801 18.68360352 -15.46508789 18.10205078 C-11.64087506 13.67821835 -7.7332338 9.32984945 -3.77734375 5.0234375 C-1.85240994 2.92199209 -1.85240994 2.92199209 0 0 Z " fill="#F2E1B8" transform="translate(256,264)"/>
<path d="M0 0 C0.33 0 0.66 0 1 0 C0.40211877 10.0695786 -0.66317243 20.00624051 -2 30 C-2.33 30 -2.66 30 -3 30 C-3.02718316 27.14576808 -3.04692705 24.29179985 -3.0625 21.4375 C-3.07087891 20.63763672 -3.07925781 19.83777344 -3.08789062 19.01367188 C-3.11511101 12.3446787 -2.80088123 6.16193871 0 0 Z " fill="#F2E1B8" transform="translate(166,446)"/>
<path d="M0 0 C-0.66386719 0.36351562 -1.32773437 0.72703125 -2.01171875 1.1015625 C-7.50936671 4.23161024 -11.15429562 7.02320609 -15 12 C-17.3125 13.375 -17.3125 13.375 -19 14 C-16.48230097 7.8201933 -7.04623374 -2.34874458 0 0 Z " fill="#144381" transform="translate(305,309)"/>
<path d="M0 0 C0 3.18675092 -0.54836654 4.39440247 -1.9375 7.1875 C-3.95727059 11.54106912 -4.65311111 15.23027779 -5 20 C-5.33 20 -5.66 20 -6 20 C-6.68892751 8.17341112 -6.68892751 8.17341112 -4.125 4.375 C-2.78851934 2.88128632 -1.41727928 1.41727928 0 0 Z " fill="#1B4A83" transform="translate(395,684)"/>
<path d="M0 0 C1.28134542 2.56269084 0.6917495 3.27116748 0 6 C-0.06688591 7.91561254 -0.08531719 9.83335592 -0.0625 11.75 C-0.05347656 12.73484375 -0.04445313 13.7196875 -0.03515625 14.734375 C-0.02355469 15.48203125 -0.01195312 16.2296875 0 17 C-2.38195654 13.42706518 -3.09580218 10.23924646 -3 6 C-1.5625 2.5 -1.5625 2.5 0 0 Z " fill="#275E8B" transform="translate(423,405)"/>
<path d="M0 0 C3.08028948 2.77226053 4.83016411 5.00306072 6 9 C6.125 11.8125 6.125 11.8125 6 14 C3.52813545 11.03653214 2.33751639 8.45958311 1.3125 4.75 C1.06113281 3.85796875 0.80976562 2.9659375 0.55078125 2.046875 C0.36902344 1.37140625 0.18726563 0.6959375 0 0 Z " fill="#F1E1B8" transform="translate(834,366)"/>
<path d="M0 0 C1.25955231 3.77865693 0.48087189 5.03411786 -0.9375 8.6875 C-1.31777344 9.68136719 -1.69804687 10.67523438 -2.08984375 11.69921875 C-2.39019531 12.45847656 -2.69054687 13.21773438 -3 14 C-3.33 14 -3.66 14 -4 14 C-3.85831863 12.56208484 -3.71148957 11.1246763 -3.5625 9.6875 C-3.48128906 8.88699219 -3.40007812 8.08648437 -3.31640625 7.26171875 C-3 5 -3 5 -2 2 C-1.34 2 -0.68 2 0 2 C0 1.34 0 0.68 0 0 Z " fill="#F3E3BA" transform="translate(180,392)"/>
<path d="M0 0 C-0.639375 0.309375 -1.27875 0.61875 -1.9375 0.9375 C-3.93610821 1.8345163 -3.93610821 1.8345163 -5 3 C-7.01964199 3.07244053 -9.04167124 3.08377188 -11.0625 3.0625 C-12.16722656 3.05347656 -13.27195312 3.04445313 -14.41015625 3.03515625 C-15.69212891 3.01775391 -15.69212891 3.01775391 -17 3 C-17 2.67 -17 2.34 -17 2 C-5.47835991 -0.29612756 -5.47835991 -0.29612756 0 0 Z " fill="#F4E3B8" transform="translate(583,845)"/>
<path d="M0 0 C1.8871875 0.0309375 1.8871875 0.0309375 3.8125 0.0625 C1.68283995 2.19216005 0.77181796 2.53874662 -2.0625 3.25 C-2.74054688 3.42917969 -3.41859375 3.60835937 -4.1171875 3.79296875 C-6.41568556 4.09220718 -7.99300964 3.75627386 -10.1875 3.0625 C-9.1975 3.0625 -8.2075 3.0625 -7.1875 3.0625 C-7.1875 2.4025 -7.1875 1.7425 -7.1875 1.0625 C-4.43671116 0.14557039 -2.82801087 -0.04636083 0 0 Z " fill="#F2E1B7" transform="translate(414.1875,172.9375)"/>
<path d="M0 0 C1.58409994 0.11487748 3.16728963 0.24234508 4.75 0.375 C6.07257813 0.47941406 6.07257813 0.47941406 7.421875 0.5859375 C9.99066382 0.99850055 11.75841015 1.71160957 14 3 C12.41753293 3.08153933 10.83383727 3.13943557 9.25 3.1875 C8.36828125 3.22230469 7.4865625 3.25710938 6.578125 3.29296875 C3.55328417 2.94923684 2.24416398 1.99772541 0 0 Z " fill="#F2E1B7" transform="translate(437,844)"/>
<path d="M0 0 C0.66 0.33 1.32 0.66 2 1 C1.195625 1.763125 0.39125 2.52625 -0.4375 3.3125 C-3.16799024 5.79430898 -3.16799024 5.79430898 -4 9 C-6.0625 9.6875 -6.0625 9.6875 -8 10 C-5.83735988 6.01618925 -3.28788824 3.11016455 0 0 Z " fill="#2D5485" transform="translate(569,480)"/>
<path d="M0 0 C3.78717347 1.48781815 5.77407001 3.61988409 8 7 C7.67 7.99 7.34 8.98 7 10 C5.82739389 8.71372289 4.6620717 7.42080217 3.5 6.125 C2.8503125 5.40570313 2.200625 4.68640625 1.53125 3.9453125 C0 2 0 2 0 0 Z " fill="#F1E2B8" transform="translate(779,277)"/>
<path d="M0 0 C-1.45537568 0.83848804 -2.91440373 1.67063934 -4.375 2.5 C-5.59316406 3.19609375 -5.59316406 3.19609375 -6.8359375 3.90625 C-9 5 -9 5 -11 5 C-11 4.34 -11 3.68 -11 3 C-4.03571429 -1.41964286 -4.03571429 -1.41964286 0 0 Z " fill="#F2E1B7" transform="translate(337,206)"/>
<path d="M0 0 C1.32 0.33 2.64 0.66 4 1 C0.535 3.97 0.535 3.97 -3 7 C-3 3.48283697 -2.17554415 2.62878252 0 0 Z " fill="#285888" transform="translate(290,316)"/>
<path d="M0 0 C1.60080151 4.00200378 0.29279692 7.04556236 -1 11 C-1.33 11 -1.66 11 -2 11 C-2.25 3.375 -2.25 3.375 0 0 Z " fill="#F3E3B9" transform="translate(171,422)"/>
<path d="M0 0 C1 4 1 4 1 4 Z " fill="#E7D7B1" transform="translate(178,620)"/>
<path d="M0 0 C1 4 1 4 1 4 Z " fill="#EADAB2" transform="translate(162,555)"/>
<path d="M0 0 C4 1 4 1 4 1 Z " fill="#E6D7AF" transform="translate(556,161)"/>
<path d="M0 0 C3 1 3 1 3 1 Z " fill="#E6D6AF" transform="translate(531,854)"/>
<path d="M0 0 C0.99 0.495 0.99 0.495 2 1 C1.01 1.495 1.01 1.495 0 2 C0 1.34 0 0.68 0 0 Z " fill="#E6D6AD" transform="translate(432,846)"/>
<path d="M0 0 C3 1 3 1 3 1 Z " fill="#E4D5AE" transform="translate(400,837)"/>
<path d="" fill="#E8DAB3" transform="translate(0,0)"/>
<path d="" fill="#E7D7B0" transform="translate(0,0)"/>
<path d="M0 0 C0.66 0 1.32 0 2 0 C1.67 0.66 1.34 1.32 1 2 C0.67 1.34 0.34 0.68 0 0 Z " fill="#E3D5AF" transform="translate(798,297)"/>
<path d="M0 0 C0.66 0 1.32 0 2 0 C1.67 0.66 1.34 1.32 1 2 C0.67 1.34 0.34 0.68 0 0 Z " fill="#E2D3AD" transform="translate(685,200)"/>
<path d="M0 0 C3 1 3 1 3 1 Z " fill="#E5D6AE" transform="translate(649,184)"/>
<path d="M0 0 C3 1 3 1 3 1 Z " fill="#E4D4AC" transform="translate(627,176)"/>
<path d="M0 0 C2 1 2 1 2 1 Z " fill="#E7D8B0" transform="translate(528,854)"/>
<path d="M0 0 C2 1 2 1 2 1 Z " fill="#E4D7AE" transform="translate(491,854)"/>
<path d="M0 0 C2 1 2 1 2 1 Z " fill="#E6D5AC" transform="translate(484,854)"/>
<path d="M0 0 C2 1 2 1 2 1 Z " fill="#E5D5AB" transform="translate(466,852)"/>
<path d="M0 0 C2 1 2 1 2 1 Z " fill="#E4D6AF" transform="translate(584,847)"/>
<path d="M0 0 C2 1 2 1 2 1 Z " fill="#E4D3AE" transform="translate(384,831)"/>
<path d="M0 0 C2 1 2 1 2 1 Z " fill="#E4D6AD" transform="translate(381,830)"/>
<path d="M0 0 C2 1 2 1 2 1 Z " fill="#E6D5AF" transform="translate(202,675)"/>
<path d="" fill="#E8D7AF" transform="translate(0,0)"/>
<path d="" fill="#E6D7AF" transform="translate(0,0)"/>
<path d="" fill="#E6D7AE" transform="translate(0,0)"/>
<path d="" fill="#E7D6AE" transform="translate(0,0)"/>
<path d="" fill="#E8D8AF" transform="translate(0,0)"/>
<path d="" fill="#E7D7B0" transform="translate(0,0)"/>
<path d="" fill="#E6D6B0" transform="translate(0,0)"/>
<path d="" fill="#E8D7B0" transform="translate(0,0)"/>
<path d="" fill="#E8D7B0" transform="translate(0,0)"/>
<path d="" fill="#E8D7B0" transform="translate(0,0)"/>
<path d="" fill="#E8D7B3" transform="translate(0,0)"/>
<path d="" fill="#EADBB5" transform="translate(0,0)"/>
<path d="" fill="#E7D7B1" transform="translate(0,0)"/>
<path d="" fill="#E8D9B2" transform="translate(0,0)"/>
<path d="" fill="#E7D6B1" transform="translate(0,0)"/>
<path d="" fill="#E6D5B1" transform="translate(0,0)"/>
<path d="M0 0 C2 1 2 1 2 1 Z " fill="#E4D6AE" transform="translate(289,232)"/>
<path d="M0 0 C2 1 2 1 2 1 Z " fill="#E4D5AC" transform="translate(316,213)"/>
<path d="M0 0 C2 1 2 1 2 1 Z " fill="#E4D5AE" transform="translate(668,192)"/>
<path d="M0 0 C2 1 2 1 2 1 Z " fill="#E3D3AC" transform="translate(630,177)"/>
<path d="" fill="#E5D9AF" transform="translate(0,0)"/>
<path d="M0 0 C2 1 2 1 2 1 Z " fill="#E6D7AE" transform="translate(598,168)"/>
<path d="M0 0 C2 1 2 1 2 1 Z " fill="#E7D9B0" transform="translate(473,160)"/>
<path d="" fill="#4F472C" transform="translate(0,0)"/>
<path d="" fill="#453E25" transform="translate(0,0)"/>
<path d="" fill="#776B4A" transform="translate(0,0)"/>
<path d="" fill="#494228" transform="translate(0,0)"/>
<path d="" fill="#E6D6AD" transform="translate(0,0)"/>
<path d="" fill="#E7D5AC" transform="translate(0,0)"/>
<path d="" fill="#E4D4AA" transform="translate(0,0)"/>
<path d="" fill="#E6D6AD" transform="translate(0,0)"/>
<path d="" fill="#E7D6AE" transform="translate(0,0)"/>
<path d="" fill="#E7D7AE" transform="translate(0,0)"/>
<path d="" fill="#E6D6B0" transform="translate(0,0)"/>
<path d="" fill="#E7D7AF" transform="translate(0,0)"/>
<path d="" fill="#E7D7AE" transform="translate(0,0)"/>
<path d="" fill="#E7D5AD" transform="translate(0,0)"/>
<path d="" fill="#E4D6AC" transform="translate(0,0)"/>
<path d="" fill="#E6D4AC" transform="translate(0,0)"/>
<path d="" fill="#E8D7AE" transform="translate(0,0)"/>
<path d="" fill="#E5D5AC" transform="translate(0,0)"/>
<path d="" fill="#E5D5AC" transform="translate(0,0)"/>
<path d="" fill="#E2D5AD" transform="translate(0,0)"/>
<path d="" fill="#E5D6AE" transform="translate(0,0)"/>
<path d="" fill="#E7D6AB" transform="translate(0,0)"/>
<path d="" fill="#E4D5AD" transform="translate(0,0)"/>
<path d="" fill="#E4D5AD" transform="translate(0,0)"/>
<path d="" fill="#E6D6AC" transform="translate(0,0)"/>
<path d="" fill="#E4D6AE" transform="translate(0,0)"/>
<path d="" fill="#E5D7AE" transform="translate(0,0)"/>
<path d="" fill="#E3D4AC" transform="translate(0,0)"/>
<path d="" fill="#E6D3AC" transform="translate(0,0)"/>
<path d="" fill="#E5D5AC" transform="translate(0,0)"/>
<path d="" fill="#E6D7B0" transform="translate(0,0)"/>
<path d="" fill="#E5D3AD" transform="translate(0,0)"/>
<path d="" fill="#E4D3AC" transform="translate(0,0)"/>
<path d="" fill="#E5D6AE" transform="translate(0,0)"/>
<path d="" fill="#E5D4AD" transform="translate(0,0)"/>
<path d="" fill="#E5D5AC" transform="translate(0,0)"/>
<path d="" fill="#E8D6AC" transform="translate(0,0)"/>
<path d="" fill="#E4D5AD" transform="translate(0,0)"/>
<path d="" fill="#E6D7AD" transform="translate(0,0)"/>
<path d="" fill="#E4D5AB" transform="translate(0,0)"/>
<path d="" fill="#E7D4AC" transform="translate(0,0)"/>
<path d="" fill="#E7D7AD" transform="translate(0,0)"/>
<path d="" fill="#E5D6AE" transform="translate(0,0)"/>
<path d="" fill="#E7D5AE" transform="translate(0,0)"/>
<path d="" fill="#E6D7AB" transform="translate(0,0)"/>
<path d="" fill="#E5D7AD" transform="translate(0,0)"/>
<path d="" fill="#E6D5AE" transform="translate(0,0)"/>
<path d="" fill="#E7D7AF" transform="translate(0,0)"/>
<path d="" fill="#E5D7AF" transform="translate(0,0)"/>
<path d="" fill="#E4D6AF" transform="translate(0,0)"/>
<path d="" fill="#E8D7AE" transform="translate(0,0)"/>
<path d="" fill="#E6D7AF" transform="translate(0,0)"/>
<path d="" fill="#E6D7B1" transform="translate(0,0)"/>
<path d="" fill="#E5D5AF" transform="translate(0,0)"/>
<path d="" fill="#E7D9B0" transform="translate(0,0)"/>
<path d="" fill="#E5D5AD" transform="translate(0,0)"/>
<path d="" fill="#E7D6B1" transform="translate(0,0)"/>
<path d="" fill="#E6D6AD" transform="translate(0,0)"/>
<path d="" fill="#E8D8AF" transform="translate(0,0)"/>
<path d="" fill="#E6D8B0" transform="translate(0,0)"/>
<path d="" fill="#E8D9B1" transform="translate(0,0)"/>
<path d="" fill="#E5D6AE" transform="translate(0,0)"/>
<path d="" fill="#E7D6AE" transform="translate(0,0)"/>
<path d="" fill="#E6D6AE" transform="translate(0,0)"/>
<path d="" fill="#E7D8AF" transform="translate(0,0)"/>
<path d="" fill="#E5D7AF" transform="translate(0,0)"/>
<path d="" fill="#E6D6AD" transform="translate(0,0)"/>
<path d="" fill="#E6D4AF" transform="translate(0,0)"/>
<path d="" fill="#E4D6AF" transform="translate(0,0)"/>
<path d="" fill="#E6D6AF" transform="translate(0,0)"/>
<path d="" fill="#E8D8AF" transform="translate(0,0)"/>
<path d="" fill="#E7D6B0" transform="translate(0,0)"/>
<path d="" fill="#E8D8B1" transform="translate(0,0)"/>
<path d="" fill="#E7D8B1" transform="translate(0,0)"/>
<path d="" fill="#E7D8B0" transform="translate(0,0)"/>
<path d="" fill="#E7D9AF" transform="translate(0,0)"/>
<path d="" fill="#E7D9B2" transform="translate(0,0)"/>
<path d="" fill="#E9D8B2" transform="translate(0,0)"/>
<path d="" fill="#E5D6AC" transform="translate(0,0)"/>
<path d="" fill="#E9D9B1" transform="translate(0,0)"/>
<path d="" fill="#E9D9B1" transform="translate(0,0)"/>
<path d="" fill="#E9DBB0" transform="translate(0,0)"/>
<path d="" fill="#E9DDB1" transform="translate(0,0)"/>
<path d="" fill="#E8D9B3" transform="translate(0,0)"/>
<path d="" fill="#E9DAB5" transform="translate(0,0)"/>
<path d="" fill="#E8D9B3" transform="translate(0,0)"/>
<path d="" fill="#EBD7B3" transform="translate(0,0)"/>
<path d="" fill="#EBDAB2" transform="translate(0,0)"/>
<path d="" fill="#E8D9B3" transform="translate(0,0)"/>
<path d="" fill="#E6D7B0" transform="translate(0,0)"/>
<path d="" fill="#E6D5AD" transform="translate(0,0)"/>
<path d="" fill="#E5D7AE" transform="translate(0,0)"/>
<path d="" fill="#EAD9B2" transform="translate(0,0)"/>
<path d="" fill="#E9DAB4" transform="translate(0,0)"/>
<path d="" fill="#E4D4AE" transform="translate(0,0)"/>
<path d="" fill="#E5D6AD" transform="translate(0,0)"/>
<path d="" fill="#E5D4AF" transform="translate(0,0)"/>
<path d="" fill="#E8D9B2" transform="translate(0,0)"/>
<path d="" fill="#E7D7AE" transform="translate(0,0)"/>
<path d="" fill="#E6D7AE" transform="translate(0,0)"/>
<path d="" fill="#E1D2AA" transform="translate(0,0)"/>
<path d="" fill="#E1D5AE" transform="translate(0,0)"/>
<path d="" fill="#E5D5AE" transform="translate(0,0)"/>
<path d="" fill="#E4D5AC" transform="translate(0,0)"/>
<path d="" fill="#E5D6B3" transform="translate(0,0)"/>
<path d="" fill="#E4D6AC" transform="translate(0,0)"/>
<path d="" fill="#E5D6AD" transform="translate(0,0)"/>
<path d="" fill="#E4D6AD" transform="translate(0,0)"/>
<path d="" fill="#E6D7AE" transform="translate(0,0)"/>
<path d="" fill="#E6D5B1" transform="translate(0,0)"/>
<path d="" fill="#E4D6AE" transform="translate(0,0)"/>
<path d="" fill="#E4D5AE" transform="translate(0,0)"/>
<path d="" fill="#E5D5AD" transform="translate(0,0)"/>
<path d="" fill="#E5D5AD" transform="translate(0,0)"/>
<path d="" fill="#E4D4B0" transform="translate(0,0)"/>
<path d="" fill="#E2D2A9" transform="translate(0,0)"/>
<path d="" fill="#EBD9B3" transform="translate(0,0)"/>
<path d="" fill="#E3D5AE" transform="translate(0,0)"/>
<path d="" fill="#E5D4AE" transform="translate(0,0)"/>
<path d="" fill="#E4D5AC" transform="translate(0,0)"/>
<path d="" fill="#E3D5AE" transform="translate(0,0)"/>
<path d="" fill="#E5D5AD" transform="translate(0,0)"/>
<path d="" fill="#E6D8AE" transform="translate(0,0)"/>
<path d="" fill="#E7D7B0" transform="translate(0,0)"/>
<path d="" fill="#E4D4AF" transform="translate(0,0)"/>
<path d="" fill="#E4D7B1" transform="translate(0,0)"/>
<path d="" fill="#E6D7B1" transform="translate(0,0)"/>
<path d="" fill="#E4D3AB" transform="translate(0,0)"/>
<path d="" fill="#E5D6AD" transform="translate(0,0)"/>
<path d="" fill="#E5D6AF" transform="translate(0,0)"/>
<path d="" fill="#E7D7AF" transform="translate(0,0)"/>
<path d="" fill="#E7D5AF" transform="translate(0,0)"/>
<path d="" fill="#E7D6AD" transform="translate(0,0)"/>
<path d="" fill="#E6D6AF" transform="translate(0,0)"/>
<path d="" fill="#E6D7AF" transform="translate(0,0)"/>
<path d="" fill="#E5D5AE" transform="translate(0,0)"/>
<path d="" fill="#E5D7AD" transform="translate(0,0)"/>
<path d="" fill="#E7D4AD" transform="translate(0,0)"/>
<path d="" fill="#E7D9B0" transform="translate(0,0)"/>
<path d="" fill="#E5D8AE" transform="translate(0,0)"/>
<path d="" fill="#E4D7AE" transform="translate(0,0)"/>
<path d="" fill="#4B452A" transform="translate(0,0)"/>
</svg>
